# AST/ASF file generated using VICON BodyLanguage
# -----------------------------------------------
:version 1.10
:name VICON
:units
  mass 1.0
  length 0.45
  angle deg
:documentation
   .ast/.asf automatically generated from VICON data using
   VICON BodyBuilder and BodyLanguage model FoxedUp or BRILLIANT.MOD
:root
   order TX TY TZ RX RY RZ
   axis XYZ
   position 0 0 0  
   orientation 0 0 0 
:bonedata
  begin
     id 1 
     name lhipjoint
     direction 0.661853 -0.702389 0.261917 
     length 2.64193 
     axis 0 0 0  XYZ
  end
  begin
     id 2 
     name lfemur
     direction 0.34202 -0.939693 0  
     length 7.01722  
     axis 0 0 20  XYZ
    dof rx ry rz
    limits (-160.0 20.0)
           (-70.0 70.0)
           (-60.0 70.0)
  end
  begin
     id 3 
     name ltibia
     direction 0.34202 -0.939693 0   
     length 8.25008   
     axis 0 0 20   XYZ
    dof rx
    limits (-10.0 170.0)
  end
  begin
     id 4 
     name lfoot
     direction 0.0709916 -0.195048 0.978221   
     length 2.31941   
     axis -90 7.62852e-016 20   XYZ
    dof rx rz
    limits (-45.0 90.0)
           (-70.0 20.0)
  end
  begin
     id 5 
     name ltoes
     direction 1.53586e-011 -4.22017e-011 1   
     length 1.16486   
     axis -90 7.62852e-016 20   XYZ
    dof rx
    limits (-90.0 20.0)
  end
  begin
     id 6 
     name rhipjoint
     direction -0.638185 -0.721362 0.268992   
     length 2.57244  
     axis 0 0 0  XYZ 
  end
  begin
     id 7 
     name rfemur
     direction -0.34202 -0.939693 0   
     length 7.07017   
     axis 0 0 -20   XYZ
    dof rx ry rz
    limits (-160.0 20.0)
           (-70.0 70.0)
           (-70.0 60.0)
  end
  begin
     id 8 
     name rtibia
     direction -0.34202 -0.939693 0   
     length 8.20386   
     axis 0 0 -20   XYZ
    dof rx
    limits (-10.0 170.0)
 end
 begin
     id 9 
     name rfoot
     direction -0.0822429 -0.225961 0.970658   
     length 2.32215  
     axis -90 -7.62852e-016 -20   XYZ
    dof rx rz
    limits (-45.0 90.0)
           (-20.0 70.0)
  end
  begin
     id 10 
     name rtoes
     direction -1.53597e-011 -4.21689e-011 1   
     length 1.16333   
     axis -90 -7.62852e-016 -20   XYZ
    dof rx
    limits (-90.0 20.0)
  end
  begin
     id 11 
     name lowerback
     direction -0.0131557 0.998589 -0.0514484   
     length 2.14993   
     axis 0 0 0   XYZ
    dof rx ry rz
    limits (-20.0 45.0)
           (-30.0 30.0)
           (-30.0 30.0)
  end
  begin
     id 12 
     name upperback
     direction -0.000776481 0.999993 0.00352685   
     length 2.15301   
     axis 0 0 0   XYZ
    dof rx ry rz
    limits (-20.0 45.0)
           (-30.0 30.0)
           (-30.0 30.0)
  end
  begin
     id 13 
     name thorax
     direction 0.00438186 0.999609 0.0276143   
     length 2.15424   
     axis 0 0 0   XYZ
    dof rx ry rz
    limits (-20.0 45.0)
           (-30.0 30.0)
           (-30.0 30.0)
  end
  begin
     id 14 
     name lowerneck
     direction -0.0488006 0.998094 0.0377807   
     length 1.90481   
     axis 0 0 0   XYZ
    dof rx ry rz
    limits (-20.0 45.0)
           (-30.0 30.0)
           (-30.0 30.0)
  end
  begin
     id 15 
     name upperneck
     direction 0.0443769 0.990702 -0.12861   
     length 1.91305   
     axis 0 0 0   XYZ
    dof rx ry rz
    limits (-20.0 45.0)
           (-30.0 30.0)
           (-30.0 30.0)
  end
  begin
     id 16
     name head
     direction 0.0165599 0.998647 -0.0492982  
     length 1.92369  
     axis 0 0 0   XYZ
    dof rx ry rz
    limits (-20.0 45.0)
           (-30.0 30.0)
           (-30.0 30.0)
  end
  begin
     id 17 
     name lclavicle
     direction 0.911936 0.410197 -0.0105506  
     length 3.52622  
     axis 0 0 0   XYZ
    dof ry rz
    limits (-20.0 10.0)
           (0.0 20.0)
  end
  begin
     id 18 
     name lhumerus
     direction 1 -4.48974e-011 -2.48591e-028   
     length 5.47651   
     axis 180 -30 -90   XYZ
    dof rx ry rz
    limits (-60.0 90.0)
           (-90.0 90.0)
           (-90.0 90.0)
  end
  begin
     id 19
     name lradius
     direction 1 -4.48938e-011 -4.40099e-027   
     length 3.09058   
     axis 180 -30 -90   XYZ
    dof rx
    limits (-10.0 170.0)
  end
  begin
     id 20
     name lwrist
     direction 1 -4.49042e-011 -2.99852e-027   
     length 1.54529   
     axis 1.95339e-015 90 90   XYZ
    dof ry
    limits (-180.0 0.0)
 end
  begin
     id 21 
     name lhand
     direction 1 -4.48815e-011 -5.98193e-027   
     length 0.771611   
     axis 3.82337e-015 90 90   XYZ
    dof rx rz
    limits (-90.0 90.0)
           (-45.0 45.0)
  end
  begin
     id 22 
     name lfingers
     direction 1 -4.49034e-011 -1.1993e-026   
     length 0.622093   
     axis 7.64668e-015 90 90   XYZ
    dof rx
    limits (0.0 90.0)
  end
  begin
     id 23
     name lthumb
     direction 0.707107 -6.34867e-011 0.707107   
     length 0.893204   
     axis -90 45 -1.62303e-014   XYZ
    dof rx rz
    limits (-45.0 45.0)
           (-45.0 45.0)
  end
  begin
     id 24 
     name rclavicle
     direction -0.93442 0.355634 -0.0195692   
     length 3.62463  
     axis 0 0 0   XYZ 
    dof ry rz
    limits (-10.0 20.0)
           (-20.0 0.0)
  end
  begin
     id 25 
     name rhumerus
     direction -1 -4.48957e-011 -1.19147e-027  
     length 5.14182   
     axis 180 30 90   XYZ
    dof rx ry rz
    limits (-90.0 60.0)
           (-90.0 90.0)
           (-90.0 90.0)
  end
  begin
     id 26 
     name rradius
     direction -1 -4.48952e-011 -3.81062e-027   
     length 3.35565   
     axis 180 30 90   XYZ
    dof rx
    limits (-10.0 170.0)
  end
  begin
     id 27 
     name rwrist
     direction -1 -4.48973e-011 -2.99621e-027   
     length 1.67782   
     axis 1.95339e-015 -90 -90   XYZ
    dof ry
    limits (-180.0 0.0)
  end
  begin
     id 28
     name rhand
     direction -1 -4.48895e-011 -5.98727e-027   
     length 0.801042   
     axis 3.82337e-015 -90 -90   XYZ
    dof rx rz
    limits (-90.0 90.0)
           (-45.0 45.0)
  end
  begin
     id 29
     name rfingers
     direction -1 -4.49065e-011 -1.19972e-026   
     length 0.645821   
     axis 7.64668e-015 -90 -90   XYZ
    dof rx
    limits (0.0 90.0)
  end
  begin
     id 30
     name rthumb
     direction -0.707107 -6.34957e-011 0.707107   
     length 0.927273   
     axis -90 -45 1.62303e-014   XYZ
    dof rx rz
    limits (-45.0 45.0)
           (-45.0 45.0)
  end
:hierarchy
  begin
    root lhipjoint rhipjoint lowerback
    lhipjoint lfemur
    lfemur ltibia
    ltibia lfoot
    lfoot ltoes
    rhipjoint rfemur
    rfemur rtibia
    rtibia rfoot
    rfoot rtoes
    lowerback upperback
    upperback thorax
    thorax lowerneck lclavicle rclavicle
    lowerneck upperneck
    upperneck head
    lclavicle lhumerus
    lhumerus lradius
    lradius lwrist
    lwrist lhand lthumb
    lhand lfingers
    rclavicle rhumerus
    rhumerus rradius
    rradius rwrist
    rwrist rhand rthumb
    rhand rfingers
  end

#!OML:ASF F:\VICON\USERDATA\INSTALL\rory3\rory3.ASF
:FULLY-SPECIFIED
:DEGREES
1
root 17.146 17.8391 -14.069 0.145598 -52.8013 3.22837
lowerback 1.41628 1.70173 -1.98311
upperback -0.40423 2.22464 -0.470729
thorax -1.26436 1.12424 0.571679
lowerneck -10.0739 -2.65 -5.46239
upperneck 17.8578 -3.11675 1.8053
head 7.25141 -1.73967 1.19847
rclavicle -1.43156e-014 6.70898e-015
rhumerus -32.3821 -6.28807 -81.6932
rradius 22.1968
rwrist 4.48237
rhand -11.0677 16.8044
rfingers 7.12502
rthumb 14.9552 -12.6356
lclavicle -1.43156e-014 6.70898e-015
lhumerus -33.5659 -6.18627 87.0288
lradius 26.3171
lwrist 5.62517
lhand -3.43399 26.7997
lfingers 7.12502
lthumb 22.2974 55.5332
rfemur -12.6227 1.45989 20.9429
rtibia 29.9504
rfoot -20.4994 -16.7734
rtoes -7.59881
lfemur -10.6404 -2.92287 -26.7907
ltibia 25.4859
lfoot -18.6926 14.5118
ltoes -18.0029
2
root 17.1465 17.8385 -14.0663 0.11741 -52.7908 3.23231
lowerback 1.48869 1.6978 -2.00144
upperback -0.3999 2.21722 -0.470857
thorax -1.30104 1.1209 0.579703
lowerneck -10.0539 -2.64396 -5.46047
upperneck 17.8618 -3.11792 1.84559
head 7.24966 -1.73681 1.2114
rclavicle -1.03303e-013 3.8763e-015
rhumerus -32.4006 -6.27068 -81.6958
rradius 22.1802
rwrist 4.44955
rhand -11.0097 16.8125
rfingers 7.12502
rthumb 15.0112 -12.6233
lclavicle -1.03303e-013 3.8763e-015
lhumerus -33.5942 -6.12087 86.9788
lradius 26.3159
lwrist 5.55743
lhand -3.50166 26.8755
lfingers 7.12502
lthumb 22.2324 55.6168
rfemur -12.5922 1.47077 20.9333
rtibia 29.9459
rfoot -20.4546 -16.8124
rtoes -7.68067
lfemur -10.6038 -2.93247 -26.8013
ltibia 25.4716
lfoot -18.6955 14.4903
ltoes -17.8353
3
root 17.1459 17.8379 -14.0625 0.180418 -52.7705 3.18321
lowerback 1.48273 1.68028 -1.99367
upperback -0.406032 2.19429 -0.457575
thorax -1.30363 1.10953 0.589668
lowerneck -9.95362 -2.61855 -5.41489
upperneck 17.7883 -3.091 1.81834
head 7.20563 -1.72319 1.19888
rclavicle 9.30033e-014 6.75868e-015
rhumerus -32.4112 -6.22811 -81.6975
rradius 22.1463
rwrist 4.42457
rhand -10.9921 16.7466
rfingers 7.12502
rthumb 15.0281 -12.688
lclavicle 9.30033e-014 6.75868e-015
lhumerus -33.6463 -6.02119 86.9209
lradius 26.3492
lwrist 5.4471
lhand -3.49636 27.0089
lfingers 7.12502
lthumb 22.2375 55.7496
rfemur -12.5754 1.44501 20.9558
rtibia 29.8888
rfoot -20.4646 -16.7943
rtoes -7.70626
lfemur -10.6739 -2.96063 -26.7779
ltibia 25.5796
lfoot -18.7529 14.5019
ltoes -17.8529
4
root 17.1494 17.8389 -14.0646 0.403076 -52.7251 2.98082
lowerback 1.52989 1.68451 -1.88773
upperback -0.420719 2.20102 -0.440482
thorax -1.34192 1.11255 0.546001
lowerneck -10.0039 -2.63778 -5.34595
upperneck 17.8064 -3.11997 1.78431
head 7.21978 -1.73518 1.17311
rclavicle -1.87292e-015 1.83876e-015
rhumerus -32.3499 -6.4579 -81.6263
rradius 22.0371
rwrist 4.59352
rhand -10.9807 16.6577
rfingers 7.12502
rthumb 15.0391 -12.7761
lclavicle -1.87292e-015 1.83876e-015
lhumerus -33.6569 -6.04809 86.8957
lradius 26.3982
lwrist 5.44323
lhand -3.52954 27.1173
lfingers 7.12502
lthumb 22.2057 55.8617
rfemur -12.621 1.61102 21.1035
rtibia 29.8305
rfoot -20.5375 -16.9035
rtoes -7.19525
lfemur -10.8318 -2.9399 -26.6273
ltibia 25.6882
lfoot -18.7694 14.4171
ltoes -17.7663
5
root 17.1571 17.8404 -14.0705 0.710373 -52.7245 2.62919
lowerback 1.67261 1.72006 -1.65745
upperback -0.451606 2.25012 -0.419707
thorax -1.44664 1.13619 0.431931
lowerneck -10.059 -2.65744 -5.30733
upperneck 17.8865 -3.15595 1.80571
head 7.2565 -1.74851 1.16949
rclavicle -8.1084e-014 1.54058e-015
rhumerus -32.3385 -6.6205 -81.6027
rradius 21.9771
rwrist 4.6567
rhand -10.9846 16.5203
rfingers 7.12502
rthumb 15.0354 -12.9138
lclavicle -8.1084e-014 1.54058e-015
lhumerus -33.6624 -6.19829 86.8992
lradius 26.4435
lwrist 5.51774
lhand -3.45402 27.2566
lfingers 7.12502
lthumb 22.2782 55.9925
rfemur -12.6661 1.84811 21.3689
rtibia 29.7687
rfoot -20.4711 -17.1424
rtoes -7.14114
lfemur -10.9847 -2.92517 -26.3705
ltibia 25.7998
lfoot -18.8208 14.357
ltoes -17.8033
6
root 17.1604 17.8425 -14.0692 0.883541 -52.7778 2.42796
lowerback 1.7426 1.74563 -1.52439
upperback -0.481124 2.28609 -0.386037
thorax -1.51299 1.15373 0.388009
lowerneck -9.97117 -2.64484 -5.35348
upperneck 17.8462 -3.14011 1.83077
head 7.22841 -1.74206 1.18787
rclavicle -2.60656e-014 9.98893e-015
rhumerus -32.4138 -6.39346 -81.6607
rradius 22.0516
rwrist 4.37329
rhand -11.0024 16.431
rfingers 7.12502
rthumb 15.0182 -13.0043
lclavicle -2.60656e-014 9.98893e-015
lhumerus -33.7256 -6.25936 86.9377
lradius 26.4888
lwrist 5.53349
lhand -3.32535 27.3508
lfingers 7.12502
lthumb 22.4017 56.0718
rfemur -12.6872 1.90417 21.5102
rtibia 29.7203
rfoot -20.2686 -17.2866
rtoes -7.83154
lfemur -11.0651 -2.92989 -26.2421
ltibia 25.8956
lfoot -18.8617 14.4135
ltoes -17.9153
